<?xml version="1.0" encoding="UTF-8" standalone="no"?>
<!-- Created with Serif DrawPlus 11, 0, 3, 23 (Feb 25, 14:12:55) (http://www.serif.com) -->

<svg
   version="1.1"
   width="276"
   height="162"
   id="svg2"
   sodipodi:docname="QM.svg"
   inkscape:version="1.3.2 (091e20e, 2023-11-25)"
   xmlns:inkscape="http://www.inkscape.org/namespaces/inkscape"
   xmlns:sodipodi="http://sodipodi.sourceforge.net/DTD/sodipodi-0.dtd"
   xmlns="http://www.w3.org/2000/svg"
   xmlns:svg="http://www.w3.org/2000/svg">
  <defs
     id="defs2" />
  <sodipodi:namedview
     id="namedview2"
     pagecolor="#ffffff"
     bordercolor="#000000"
     borderopacity="0.25"
     inkscape:showpageshadow="2"
     inkscape:pageopacity="0.0"
     inkscape:pagecheckerboard="0"
     inkscape:deskcolor="#d1d1d1"
     inkscape:zoom="1.4567901"
     inkscape:cx="102.27966"
     inkscape:cy="26.084746"
     inkscape:window-width="1312"
     inkscape:window-height="449"
     inkscape:window-x="0"
     inkscape:window-y="38"
     inkscape:window-maximized="0"
     inkscape:current-layer="Layer_1" />
  <g
     id="Layer_1"
     inkscape:label="Layer 1"
     inkscape:groupmode="layer">
    <rect
       style="fill:#ffffff;fill-opacity:0.85044;stroke-width:0.892908;stroke-linecap:square;stroke-linejoin:round"
       id="rect2"
       width="276"
       height="162"
       x="3.5527137e-14"
       y="3.5527137e-15" />
    <path
       id="dp_path001"
       fill="black"
       fill-rule="evenodd"
       d="M 91.7067,18.028 C 92.9013,18.028 93.8093,17.8253 94.428,17.42 C 95.0493,17.016 95.4613,16.5227 95.668,15.9427 C 95.8747,15.3613 96.0107,14.3947 96.0707,13.04 C 96.132,11.5347 96.4667,10.4147 97.0747,9.68 C 97.684,8.94533 98.6827,8.57867 100.076,8.57867 L 100.076,9.07333 C 99.5787,9.10933 99.2413,9.30533 99.0613,9.66 C 98.884,10.016 98.7933,10.772 98.7933,11.924 C 98.7933,13.6107 98.616,14.916 98.26,15.8347 C 97.9053,16.7547 97.192,17.4987 96.1187,18.0707 C 95.0467,18.644 93.576,18.9507 91.7067,18.996 L 91.7067,23.18 C 91.7067,24.204 91.764,24.868 91.884,25.1693 C 92.0027,25.4707 92.2533,25.7147 92.6347,25.896 C 93.016,26.0813 93.6067,26.1733 94.4067,26.1733 L 94.4067,26.668 L 86.464,26.668 L 86.464,26.1733 C 87.244,26.164 87.8267,26.0787 88.2093,25.916 C 88.5893,25.7547 88.8467,25.5187 88.972,25.208 C 89.1,24.8973 89.164,24.2227 89.164,23.18 L 89.164,18.996 C 87.276,18.9507 85.8093,18.6493 84.7627,18.084 C 83.7187,17.5213 83.0093,16.7867 82.636,15.8747 C 82.2627,14.964 82.076,13.6427 82.076,11.9107 C 82.076,10.8013 81.9933,10.0653 81.8267,9.70133 C 81.6627,9.33467 81.3173,9.12533 80.7933,9.07333 L 80.7933,8.57867 C 81.6773,8.596 82.3907,8.736 82.9333,9.00133 C 83.4773,9.264 83.912,9.73067 84.24,10.4 C 84.5693,11.0693 84.756,11.948 84.7987,13.04 C 84.8587,14.3853 84.9893,15.348 85.188,15.9293 C 85.3853,16.5093 85.8,17.004 86.4347,17.4133 C 87.0667,17.8227 87.9773,18.028 89.164,18.028 L 89.164,12.2907 C 89.164,11.2627 89.1053,10.596 88.9853,10.292 C 88.8667,9.99067 88.6187,9.75067 88.2413,9.57467 C 87.8627,9.39867 87.2707,9.30667 86.464,9.29867 L 86.464,8.80267 L 94.4067,8.80267 L 94.4067,9.29867 C 93.5987,9.30667 93.0067,9.39733 92.628,9.568 C 92.2507,9.73867 92.0027,9.98 91.884,10.2853 C 91.764,10.5947 91.7067,11.2627 91.7067,12.2907 Z " />
    <text
       id="dp_text001"
       transform="matrix(1,0,0,1,100.153,26.668)"
       xml:space="preserve"
       fill="black"
       font-family="Arial"
       font-size="27"
       font-weight="400"
       x="0"
       y="0">  </text>
    <path
       id="dp_path004"
       fill="#1e02ab"
       fill-rule="evenodd"
       fill-opacity="0.113725"
       stroke="none"
       stroke-width="1.33333"
       d="M 37.98,56.9747 C 30.64,56.9747 24.6907,63.0747 24.6907,70.6 C 24.6907,78.1253 30.64,84.2253 37.98,84.2253 C 45.32,84.2253 51.2693,78.1253 51.2693,70.6 C 51.2693,63.0747 45.32,56.9747 37.98,56.9747 Z " />
    <path
       id="dp_path005"
       fill="#1e02ab"
       fill-rule="evenodd"
       fill-opacity="0.180392"
       stroke="none"
       stroke-width="1.33333"
       d="M 48.2827,56.9747 C 40.9427,56.9747 34.9933,63.0747 34.9933,70.6 C 34.9933,78.1253 40.9427,84.2253 48.2827,84.2253 C 55.6227,84.2253 61.572,78.1253 61.572,70.6 C 61.572,63.0747 55.6227,56.9747 48.2827,56.9747 Z " />
    <g
       id="dp_group006">
      <path
         id="dp_path008"
         fill="#e30808"
         fill-rule="evenodd"
         d="M 253.033,69.5467 L 253.033,70.88 L 253.032,73.5467 L 259.7,70.2147 L 253.035,66.88 Z " />
      <path
         id="dp_path009"
         fill="#e30808"
         fill-rule="evenodd"
         d="M 0,70.7827 L 253.033,70.88 L 253.033,69.5467 L 0,69.4493 Z " />
    </g>
    <path
       id="dp_path010"
       fill="none"
       fill-rule="evenodd"
       stroke="#8f00d1"
       stroke-width="1.33333"
       d="M 20.4187,71.5533 C 25.3533,74.468 32.044,66.6187 35.8947,68.184 C 45.6213,72.1387 46.1707,83.22 56.8533,64.3907 S 72.6587,115.429 84.804,53.6453 S 92.752,197.808 111.719,56.332 S 124.067,230.044 137.709,68.8667 S 148.025,175.423 162.665,76.9267 S 179.389,118.967 190.116,68.8667 C 196.039,41.2053 200.1,81.828 208.4,71.0827 S 220.843,71.5533 227.164,71.5533 S 237.284,68.8667 244.519,68.8667" />
    <path
       id="dp_path011"
       fill="#1e02ab"
       fill-rule="evenodd"
       fill-opacity="0.239216"
       stroke="none"
       stroke-width="1.33333"
       d="M 73.0547,56.9747 C 65.7147,56.9747 59.7653,63.0747 59.7653,70.6 C 59.7653,78.1253 65.7147,84.2253 73.0547,84.2253 C 80.3947,84.2253 86.344,78.1253 86.344,70.6 C 86.344,63.0747 80.3947,56.9747 73.0547,56.9747 Z " />
    <path
       id="dp_path012"
       fill="#1e02ab"
       fill-rule="evenodd"
       fill-opacity="0.317647"
       stroke="none"
       stroke-width="1.33333"
       d="M 87.864,56.9747 C 80.524,56.9747 74.5747,63.0747 74.5747,70.6 C 74.5747,78.1253 80.524,84.2253 87.864,84.2253 C 95.204,84.2253 101.153,78.1253 101.153,70.6 C 101.153,63.0747 95.204,56.9747 87.864,56.9747 Z " />
    <path
       id="dp_path013"
       fill="#1e02ab"
       fill-rule="evenodd"
       fill-opacity="0.34902"
       stroke="none"
       stroke-width="1.33333"
       d="M 103.508,56.9747 C 96.168,56.9747 90.2187,63.0747 90.2187,70.6 C 90.2187,78.1253 96.168,84.2253 103.508,84.2253 C 110.848,84.2253 116.797,78.1253 116.797,70.6 C 116.797,63.0747 110.848,56.9747 103.508,56.9747 Z " />
    <path
       id="dp_path014"
       fill="#1e02ab"
       fill-rule="evenodd"
       fill-opacity="0.717647"
       stroke="none"
       stroke-width="1.33333"
       d="M 117.953,56.9747 C 110.613,56.9747 104.664,63.0747 104.664,70.6 C 104.664,78.1253 110.613,84.2253 117.953,84.2253 C 125.293,84.2253 131.243,78.1253 131.243,70.6 C 131.243,63.0747 125.293,56.9747 117.953,56.9747 Z " />
    <path
       id="dp_path015"
       fill="#1e02ab"
       fill-rule="evenodd"
       fill-opacity="0.717647"
       stroke="none"
       stroke-width="1.33333"
       d="M 130.551,56.9747 C 137.891,56.9747 143.84,63.0747 143.84,70.6 C 143.84,78.1253 137.891,84.2253 130.551,84.2253 C 123.211,84.2253 117.261,78.1253 117.261,70.6 C 117.261,63.0747 123.211,56.9747 130.551,56.9747 Z " />
    <path
       id="dp_path016"
       fill="#1e02ab"
       fill-rule="evenodd"
       fill-opacity="0.603922"
       stroke="none"
       stroke-width="1.33333"
       d="M 143.149,56.9747 C 150.489,56.9747 156.439,63.0747 156.439,70.6 C 156.439,78.1253 150.489,84.2253 143.149,84.2253 C 135.809,84.2253 129.86,78.1253 129.86,70.6 C 129.86,63.0747 135.809,56.9747 143.149,56.9747 Z " />
    <path
       id="dp_path017"
       fill="#1e02ab"
       fill-rule="evenodd"
       fill-opacity="0.462745"
       stroke="none"
       stroke-width="1.33333"
       d="M 156.2,56.9747 C 163.54,56.9747 169.489,63.0747 169.489,70.6 C 169.489,78.1253 163.54,84.2253 156.2,84.2253 C 148.86,84.2253 142.911,78.1253 142.911,70.6 C 142.911,63.0747 148.86,56.9747 156.2,56.9747 Z " />
    <path
       id="dp_path018"
       fill="#1e02ab"
       fill-rule="evenodd"
       fill-opacity="0.372549"
       stroke="none"
       stroke-width="1.33333"
       d="M 170.365,56.9747 C 177.705,56.9747 183.655,63.0747 183.655,70.6 C 183.655,78.1253 177.705,84.2253 170.365,84.2253 C 163.025,84.2253 157.076,78.1253 157.076,70.6 C 157.076,63.0747 163.025,56.9747 170.365,56.9747 Z " />
    <path
       id="dp_path019"
       fill="#1e02ab"
       fill-rule="evenodd"
       fill-opacity="0.196078"
       stroke="none"
       stroke-width="1.33333"
       d="M 194.496,56.9747 C 201.836,56.9747 207.785,63.0747 207.785,70.6 C 207.785,78.1253 201.836,84.2253 194.496,84.2253 C 187.156,84.2253 181.207,78.1253 181.207,70.6 C 181.207,63.0747 187.156,56.9747 194.496,56.9747 Z " />
    <path
       id="dp_path020"
       fill="#1e02ab"
       fill-rule="evenodd"
       fill-opacity="0.137255"
       stroke="none"
       stroke-width="1.33333"
       d="M 216.637,56.9747 C 223.977,56.9747 229.927,63.0747 229.927,70.6 C 229.927,78.1253 223.977,84.2253 216.637,84.2253 C 209.297,84.2253 203.348,78.1253 203.348,70.6 C 203.348,63.0747 209.297,56.9747 216.637,56.9747 Z " />
    <path
       id="dp_path021"
       fill="#1e02ab"
       fill-rule="evenodd"
       fill-opacity="0.0901961"
       stroke="none"
       stroke-width="1.33333"
       d="M 226.577,57.804 C 233.917,57.804 239.867,63.904 239.867,71.4293 C 239.867,78.9547 233.917,85.0547 226.577,85.0547 C 219.237,85.0547 213.288,78.9547 213.288,71.4293 C 213.288,63.904 219.237,57.804 226.577,57.804 Z " />
    <path
       id="dp_path022"
       fill="#1e02ab"
       fill-rule="evenodd"
       fill-opacity="0.207843"
       stroke="none"
       stroke-width="1.33333"
       d="M 58.5213,57.4933 C 51.1813,57.4933 45.232,63.5933 45.232,71.1187 C 45.232,78.644 51.1813,84.744 58.5213,84.744 C 65.8613,84.744 71.8107,78.644 71.8107,71.1187 C 71.8107,63.5933 65.8613,57.4933 58.5213,57.4933 Z " />
    <path
       id="dp_path023"
       fill="#1e02ab"
       fill-rule="evenodd"
       fill-opacity="0.247059"
       stroke="none"
       stroke-width="1.33333"
       d="M 184.496,56.9747 C 191.836,56.9747 197.785,63.0747 197.785,70.6 C 197.785,78.1253 191.836,84.2253 184.496,84.2253 C 177.156,84.2253 171.207,78.1253 171.207,70.6 C 171.207,63.0747 177.156,56.9747 184.496,56.9747 Z " />
    <path
       id="dp_path024"
       fill="#1e02ab"
       fill-rule="evenodd"
       fill-opacity="0.0901961"
       stroke="none"
       stroke-width="1.33333"
       d="M 204.577,57.804 C 211.917,57.804 217.867,63.904 217.867,71.4293 C 217.867,78.9547 211.917,85.0547 204.577,85.0547 C 197.237,85.0547 191.288,78.9547 191.288,71.4293 C 191.288,63.904 197.237,57.804 204.577,57.804 Z " />
    <path
       id="dp_path003"
       fill="black"
       fill-rule="evenodd"
       d="M 268.919,63.8427 C 269.345,64.3 269.667,64.756 269.885,65.2133 C 270.043,65.5307 270.301,66.368 270.66,67.724 L 271.823,65.976 C 272.131,65.5507 272.504,65.148 272.943,64.7627 C 273.384,64.3787 273.771,64.1173 274.107,63.976 C 274.319,63.888 274.549,63.8427 274.807,63.8427 C 275.184,63.8427 275.485,63.944 275.708,64.1493 C 275.933,64.352 276.047,64.5987 276.047,64.892 C 276.047,65.2267 275.981,65.456 275.848,65.58 C 275.6,65.8027 275.319,65.9133 275.003,65.9133 C 274.817,65.9133 274.62,65.872 274.408,65.792 C 273.995,65.648 273.717,65.576 273.576,65.576 C 273.364,65.576 273.115,65.6987 272.824,65.9467 C 272.277,66.4053 271.625,67.292 270.869,68.6067 L 271.957,73.1227 C 272.127,73.8147 272.268,74.2293 272.383,74.3667 C 272.497,74.5013 272.611,74.5693 272.725,74.5693 C 272.912,74.5693 273.128,74.468 273.375,74.2667 C 273.859,73.8627 274.273,73.336 274.617,72.688 L 275.079,72.924 C 274.525,73.9587 273.825,74.8187 272.972,75.5053 C 272.491,75.8893 272.084,76.0827 271.748,76.0827 C 271.259,76.0827 270.869,75.8067 270.579,75.2533 C 270.396,74.9107 270.019,73.4373 269.444,70.8293 C 268.072,73.208 266.975,74.74 266.147,75.424 C 265.611,75.8627 265.091,76.0827 264.591,76.0827 C 264.239,76.0827 263.919,75.9573 263.628,75.7027 C 263.417,75.512 263.311,75.2547 263.311,74.9307 C 263.311,74.6427 263.408,74.4027 263.599,74.2107 C 263.792,74.02 264.029,73.9227 264.311,73.9227 C 264.589,73.9227 264.888,74.0627 265.203,74.3413 C 265.431,74.5413 265.607,74.6427 265.728,74.6427 C 265.833,74.6427 265.968,74.5733 266.135,74.4333 C 266.547,74.1027 267.107,73.388 267.817,72.2893 C 268.527,71.192 268.991,70.4 269.208,69.9107 C 268.667,67.7627 268.371,66.6267 268.328,66.5027 C 268.128,65.9267 267.867,65.5187 267.543,65.2813 C 267.221,65.0427 266.747,64.9227 266.119,64.9227 C 265.919,64.9227 265.687,64.932 265.427,64.9507 L 265.427,64.4733 Z " />
    <path
       id="path1"
       fill="black"
       fill-rule="evenodd"
       d="M 102.805,142.876 L 101.907,145.911 C 102.865,144.784 103.723,143.996 104.475,143.549 C 105.227,143.101 105.993,142.876 106.776,142.876 C 107.559,142.876 108.228,143.187 108.783,143.805 C 109.337,144.424 109.613,145.229 109.613,146.221 C 109.613,148.155 108.828,150.121 107.257,152.119 C 105.687,154.117 103.859,155.116 101.768,155.116 C 101.329,155.116 100.943,155.069 100.604,154.972 C 100.265,154.875 99.8867,154.707 99.4667,154.461 L 98.4853,157.859 C 98.292,158.533 98.1947,158.972 98.1947,159.177 C 98.1947,159.373 98.2467,159.54 98.348,159.677 C 98.4493,159.816 98.6133,159.923 98.84,159.999 C 99.0707,160.073 99.5227,160.111 100.2,160.111 L 100.08,160.584 L 93.8707,160.584 L 94.0027,160.111 C 94.82,160.075 95.3707,159.933 95.6573,159.685 C 95.9427,159.436 96.244,158.749 96.5587,157.623 L 99.884,146.093 C 100.087,145.36 100.188,144.905 100.188,144.731 C 100.188,144.492 100.121,144.307 99.984,144.175 C 99.848,144.041 99.6387,143.976 99.3587,143.976 C 99.1013,143.976 98.7467,144.008 98.2867,144.068 L 98.2867,143.551 Z M 99.7653,153.421 C 100.315,154.072 101.057,154.396 101.991,154.396 C 102.452,154.396 102.923,154.268 103.401,154.013 C 103.883,153.759 104.351,153.381 104.808,152.88 C 105.267,152.38 105.676,151.801 106.04,151.147 C 106.405,150.492 106.731,149.72 107.021,148.835 C 107.309,147.948 107.453,147.068 107.453,146.199 C 107.453,145.495 107.289,144.957 106.963,144.584 C 106.637,144.211 106.255,144.024 105.816,144.024 C 104.851,144.024 103.895,144.565 102.951,145.652 C 102.007,146.739 101.324,148.013 100.904,149.475 Z " />
    <path
       id="path2"
       fill="black"
       fill-rule="evenodd"
       d="M 119.792,143.168 L 134.035,143.168 L 134.035,144.248 L 119.792,144.248 Z M 119.792,147.467 L 134.035,147.467 L 134.035,148.547 L 119.792,148.547 Z " />
    <path
       id="dp_path006"
       fill="black"
       fill-rule="evenodd"
       d="M 148.496,139.568 L 152.495,139.568 L 152.204,140.648 L 148.183,140.648 L 145.821,148.843 C 147.621,146.285 149.007,144.651 149.976,143.94 C 150.947,143.232 151.783,142.876 152.488,142.876 C 152.993,142.876 153.395,143.039 153.691,143.364 C 153.985,143.688 154.135,144.139 154.135,144.712 C 154.135,145.225 153.997,145.891 153.723,146.712 L 151.929,152.189 C 151.713,152.841 151.605,153.217 151.605,153.312 C 151.605,153.565 151.703,153.692 151.896,153.692 C 152.265,153.692 152.825,153.103 153.572,151.928 L 153.981,152.18 C 152.656,154.137 151.504,155.116 150.528,155.116 C 150.179,155.116 149.916,154.997 149.74,154.76 C 149.565,154.524 149.477,154.256 149.477,153.957 C 149.477,153.597 149.651,152.895 149.999,151.851 L 151.716,146.584 C 151.933,145.925 152.044,145.421 152.044,145.069 C 152.044,144.659 151.828,144.451 151.401,144.451 C 150.521,144.451 149.337,145.396 147.851,147.287 C 146.361,149.173 145.364,150.861 144.857,152.341 L 144.101,154.801 L 142.124,154.801 L 146.208,140.648 L 143.993,140.648 L 144.284,139.568 L 146.519,139.568 C 146.781,138.624 146.915,138.056 146.915,137.865 C 146.915,137.431 146.633,137.213 146.071,137.213 C 145.895,137.213 145.524,137.249 144.952,137.319 L 144.952,136.801 L 149.112,136.059 L 149.508,136.059 Z " />
    <path
       id="dp_path007"
       fill="black"
       fill-rule="evenodd"
       d="M 162.828,136.059 L 159.112,149 L 160.608,147.739 C 162.245,146.343 163.312,145.313 163.807,144.649 C 163.967,144.424 164.045,144.253 164.045,144.136 C 164.045,144.055 164.019,143.979 163.967,143.907 C 163.913,143.835 163.809,143.776 163.656,143.731 C 163.504,143.687 163.233,143.664 162.847,143.664 L 162.385,143.664 L 162.529,143.191 L 168.292,143.191 L 168.159,143.664 C 167.5,143.7 166.931,143.805 166.451,143.981 C 165.972,144.156 165.508,144.413 165.06,144.755 C 164.176,145.419 163.593,145.877 163.315,146.135 L 162.179,147.167 C 162.372,147.795 162.611,148.672 162.893,149.799 C 163.371,151.667 163.692,152.773 163.861,153.125 C 164.028,153.479 164.199,153.653 164.375,153.653 C 164.523,153.653 164.699,153.579 164.899,153.428 C 165.355,153.096 165.841,152.563 166.359,151.831 L 166.82,152.161 C 165.861,153.365 165.128,154.16 164.62,154.543 C 164.109,154.925 163.643,155.116 163.223,155.116 C 162.853,155.116 162.568,154.972 162.365,154.681 C 162.013,154.164 161.429,152.125 160.615,148.567 L 158.788,150.132 L 157.444,154.801 L 155.389,154.801 L 159.728,139.767 L 160.095,138.488 C 160.137,138.272 160.16,138.081 160.16,137.917 C 160.16,137.708 160.081,137.535 159.921,137.395 C 159.761,137.256 159.532,137.185 159.233,137.185 C 159.035,137.185 158.723,137.231 158.292,137.319 L 158.249,136.847 Z " />
    <text
       id="dp_text002"
       transform="matrix(1,0,0,1,166.757,154.801)"
       xml:space="preserve"
       fill="black"
       font-family="Arial"
       font-size="27"
       font-weight="400"
       x="0"
       y="0">  </text>
    <g
       id="dp_group030">
      <path
         id="dp_path032"
         fill="#e30808"
         fill-rule="evenodd"
         d="M 104.932,127.868 L 104.935,125.201 L 104.941,119.868 L 91.6,126.517 L 104.925,133.201 Z " />
      <path
         id="dp_path033"
         fill="#e30808"
         fill-rule="evenodd"
         d="M 157.569,125.264 L 157.567,127.931 L 157.56,133.264 L 170.901,126.615 L 157.576,119.931 Z " />
      <path
         id="dp_path034"
         fill="#e30808"
         fill-rule="evenodd"
         d="M 104.932,127.867 L 157.567,127.932 L 157.569,125.265 L 104.935,125.2 Z " />
    </g>
  </g>
</svg>
